<mxfile host="drawio-plugin" modified="2022-02-03T02:54:07.736Z" agent="5.0 (X11; Linux x86_64) AppleWebKit/537.36 (KHTML, like Gecko) Chrome/89.0.4389.90 Safari/537.36" etag="foohbm_Jd_CwrHkSi9y4" version="15.5.4" type="embed" pages="2"><diagram id="C5RBs43oDa-KdzZeNtuy" name="EPIC-1: Q&amp;A"><mxGraphModel dx="451" dy="723" grid="1" gridSize="10" guides="1" tooltips="1" connect="1" arrows="1" fold="1" page="1" pageScale="1" pageWidth="827" pageHeight="1169" math="0" shadow="0"><root><mxCell id="WIyWlLk6GJQsqaUBKTNV-0"/><mxCell id="WIyWlLk6GJQsqaUBKTNV-1" parent="WIyWlLk6GJQsqaUBKTNV-0"/><mxCell id="IK2A82K8AMfzD1IcEdAW-0" value="Theme" style="swimlane;fontStyle=2;align=center;verticalAlign=top;childLayout=stackLayout;horizontal=1;startSize=26;horizontalStack=0;resizeParent=1;resizeLast=0;collapsible=1;marginBottom=0;rounded=0;shadow=0;strokeWidth=1;" parent="WIyWlLk6GJQsqaUBKTNV-1" vertex="1"><mxGeometry x="40" y="40" width="160" height="110" as="geometry"><mxRectangle x="230" y="140" width="160" height="26" as="alternateBounds"/></mxGeometry></mxCell><mxCell id="IK2A82K8AMfzD1IcEdAW-1" value="Scope" style="text;align=left;verticalAlign=top;spacingLeft=4;spacingRight=4;overflow=hidden;rotatable=0;points=[[0,0.5],[1,0.5]];portConstraint=eastwest;" parent="IK2A82K8AMfzD1IcEdAW-0" vertex="1"><mxGeometry y="26" width="160" height="26" as="geometry"/></mxCell><mxCell id="IK2A82K8AMfzD1IcEdAW-2" value="Name" style="text;align=left;verticalAlign=top;spacingLeft=4;spacingRight=4;overflow=hidden;rotatable=0;points=[[0,0.5],[1,0.5]];portConstraint=eastwest;rounded=0;shadow=0;html=0;" parent="IK2A82K8AMfzD1IcEdAW-0" vertex="1"><mxGeometry y="52" width="160" height="26" as="geometry"/></mxCell><mxCell id="IK2A82K8AMfzD1IcEdAW-9" value="Questions" style="text;align=left;verticalAlign=top;spacingLeft=4;spacingRight=4;overflow=hidden;rotatable=0;points=[[0,0.5],[1,0.5]];portConstraint=eastwest;rounded=0;shadow=0;html=0;" parent="IK2A82K8AMfzD1IcEdAW-0" vertex="1"><mxGeometry y="78" width="160" height="26" as="geometry"/></mxCell><mxCell id="IK2A82K8AMfzD1IcEdAW-6" value="Question" style="swimlane;fontStyle=2;align=center;verticalAlign=top;childLayout=stackLayout;horizontal=1;startSize=26;horizontalStack=0;resizeParent=1;resizeLast=0;collapsible=1;marginBottom=0;rounded=0;shadow=0;strokeWidth=1;" parent="WIyWlLk6GJQsqaUBKTNV-1" vertex="1"><mxGeometry x="280" y="40" width="160" height="110" as="geometry"><mxRectangle x="230" y="140" width="160" height="26" as="alternateBounds"/></mxGeometry></mxCell><mxCell id="IK2A82K8AMfzD1IcEdAW-7" value="Theme" style="text;align=left;verticalAlign=top;spacingLeft=4;spacingRight=4;overflow=hidden;rotatable=0;points=[[0,0.5],[1,0.5]];portConstraint=eastwest;" parent="IK2A82K8AMfzD1IcEdAW-6" vertex="1"><mxGeometry y="26" width="160" height="26" as="geometry"/></mxCell><mxCell id="IK2A82K8AMfzD1IcEdAW-8" value="Content" style="text;align=left;verticalAlign=top;spacingLeft=4;spacingRight=4;overflow=hidden;rotatable=0;points=[[0,0.5],[1,0.5]];portConstraint=eastwest;rounded=0;shadow=0;html=0;" parent="IK2A82K8AMfzD1IcEdAW-6" vertex="1"><mxGeometry y="52" width="160" height="26" as="geometry"/></mxCell><mxCell id="IK2A82K8AMfzD1IcEdAW-13" value="Answer" style="text;align=left;verticalAlign=top;spacingLeft=4;spacingRight=4;overflow=hidden;rotatable=0;points=[[0,0.5],[1,0.5]];portConstraint=eastwest;rounded=0;shadow=0;html=0;" parent="IK2A82K8AMfzD1IcEdAW-6" vertex="1"><mxGeometry y="78" width="160" height="26" as="geometry"/></mxCell><mxCell id="IK2A82K8AMfzD1IcEdAW-10" value="Answer" style="swimlane;fontStyle=2;align=center;verticalAlign=top;childLayout=stackLayout;horizontal=1;startSize=26;horizontalStack=0;resizeParent=1;resizeLast=0;collapsible=1;marginBottom=0;rounded=0;shadow=0;strokeWidth=1;" parent="WIyWlLk6GJQsqaUBKTNV-1" vertex="1"><mxGeometry x="520" y="40" width="160" height="80" as="geometry"><mxRectangle x="230" y="140" width="160" height="26" as="alternateBounds"/></mxGeometry></mxCell><mxCell id="IK2A82K8AMfzD1IcEdAW-14" value="Question" style="text;align=left;verticalAlign=top;spacingLeft=4;spacingRight=4;overflow=hidden;rotatable=0;points=[[0,0.5],[1,0.5]];portConstraint=eastwest;rounded=0;shadow=0;html=0;" parent="IK2A82K8AMfzD1IcEdAW-10" vertex="1"><mxGeometry y="26" width="160" height="26" as="geometry"/></mxCell><mxCell id="IK2A82K8AMfzD1IcEdAW-12" value="Content" style="text;align=left;verticalAlign=top;spacingLeft=4;spacingRight=4;overflow=hidden;rotatable=0;points=[[0,0.5],[1,0.5]];portConstraint=eastwest;rounded=0;shadow=0;html=0;" parent="IK2A82K8AMfzD1IcEdAW-10" vertex="1"><mxGeometry y="52" width="160" height="26" as="geometry"/></mxCell><mxCell id="IK2A82K8AMfzD1IcEdAW-20" value="contains" style="endArrow=open;html=1;endSize=12;startArrow=diamondThin;startSize=14;startFill=0;edgeStyle=orthogonalEdgeStyle;rounded=0;entryX=0;entryY=0.5;entryDx=0;entryDy=0;" parent="WIyWlLk6GJQsqaUBKTNV-1" target="IK2A82K8AMfzD1IcEdAW-7" edge="1"><mxGeometry relative="1" as="geometry"><mxPoint x="200" y="130" as="sourcePoint"/><mxPoint x="360" y="130" as="targetPoint"/><Array as="points"><mxPoint x="240" y="130"/><mxPoint x="240" y="79"/></Array></mxGeometry></mxCell><mxCell id="IK2A82K8AMfzD1IcEdAW-21" value="1" style="edgeLabel;resizable=0;html=1;align=left;verticalAlign=top;" parent="IK2A82K8AMfzD1IcEdAW-20" connectable="0" vertex="1"><mxGeometry x="-1" relative="1" as="geometry"/></mxCell><mxCell id="IK2A82K8AMfzD1IcEdAW-22" value="0..n" style="edgeLabel;resizable=0;html=1;align=right;verticalAlign=top;" parent="IK2A82K8AMfzD1IcEdAW-20" connectable="0" vertex="1"><mxGeometry x="1" relative="1" as="geometry"/></mxCell><mxCell id="IK2A82K8AMfzD1IcEdAW-23" value="contains" style="endArrow=open;html=1;endSize=12;startArrow=diamondThin;startSize=14;startFill=1;edgeStyle=orthogonalEdgeStyle;rounded=0;entryX=0;entryY=0.5;entryDx=0;entryDy=0;" parent="WIyWlLk6GJQsqaUBKTNV-1" edge="1"><mxGeometry relative="1" as="geometry"><mxPoint x="440" y="131" as="sourcePoint"/><mxPoint x="520" y="80" as="targetPoint"/><Array as="points"><mxPoint x="480" y="131"/><mxPoint x="480" y="80"/></Array></mxGeometry></mxCell><mxCell id="IK2A82K8AMfzD1IcEdAW-24" value="1" style="edgeLabel;resizable=0;html=1;align=left;verticalAlign=top;" parent="IK2A82K8AMfzD1IcEdAW-23" connectable="0" vertex="1"><mxGeometry x="-1" relative="1" as="geometry"/></mxCell><mxCell id="IK2A82K8AMfzD1IcEdAW-25" value="1" style="edgeLabel;resizable=0;html=1;align=right;verticalAlign=top;" parent="IK2A82K8AMfzD1IcEdAW-23" connectable="0" vertex="1"><mxGeometry x="1" relative="1" as="geometry"/></mxCell></root></mxGraphModel></diagram><diagram name="EPIC-2: Users" id="YC5UMaSPiKBPbYW7N6KG"><mxGraphModel dx="451" dy="723" grid="1" gridSize="10" guides="1" tooltips="1" connect="1" arrows="1" fold="1" page="1" pageScale="1" pageWidth="827" pageHeight="1169" math="0" shadow="0"><root><mxCell id="p1RP8gc9oSoLHfOKgk2z-0"/><mxCell id="p1RP8gc9oSoLHfOKgk2z-1" parent="p1RP8gc9oSoLHfOKgk2z-0"/><mxCell id="p1RP8gc9oSoLHfOKgk2z-2" value="Theme" style="swimlane;fontStyle=2;align=center;verticalAlign=top;childLayout=stackLayout;horizontal=1;startSize=26;horizontalStack=0;resizeParent=1;resizeLast=0;collapsible=1;marginBottom=0;rounded=0;shadow=0;strokeWidth=1;" parent="p1RP8gc9oSoLHfOKgk2z-1" vertex="1"><mxGeometry x="40" y="40" width="160" height="110" as="geometry"><mxRectangle x="230" y="140" width="160" height="26" as="alternateBounds"/></mxGeometry></mxCell><mxCell id="p1RP8gc9oSoLHfOKgk2z-3" value="Scope" style="text;align=left;verticalAlign=top;spacingLeft=4;spacingRight=4;overflow=hidden;rotatable=0;points=[[0,0.5],[1,0.5]];portConstraint=eastwest;" parent="p1RP8gc9oSoLHfOKgk2z-2" vertex="1"><mxGeometry y="26" width="160" height="26" as="geometry"/></mxCell><mxCell id="p1RP8gc9oSoLHfOKgk2z-4" value="Name" style="text;align=left;verticalAlign=top;spacingLeft=4;spacingRight=4;overflow=hidden;rotatable=0;points=[[0,0.5],[1,0.5]];portConstraint=eastwest;rounded=0;shadow=0;html=0;" parent="p1RP8gc9oSoLHfOKgk2z-2" vertex="1"><mxGeometry y="52" width="160" height="26" as="geometry"/></mxCell><mxCell id="p1RP8gc9oSoLHfOKgk2z-5" value="Questions" style="text;align=left;verticalAlign=top;spacingLeft=4;spacingRight=4;overflow=hidden;rotatable=0;points=[[0,0.5],[1,0.5]];portConstraint=eastwest;rounded=0;shadow=0;html=0;" parent="p1RP8gc9oSoLHfOKgk2z-2" vertex="1"><mxGeometry y="78" width="160" height="26" as="geometry"/></mxCell><mxCell id="p1RP8gc9oSoLHfOKgk2z-6" value="Question" style="swimlane;fontStyle=2;align=center;verticalAlign=top;childLayout=stackLayout;horizontal=1;startSize=26;horizontalStack=0;resizeParent=1;resizeLast=0;collapsible=1;marginBottom=0;rounded=0;shadow=0;strokeWidth=1;" parent="p1RP8gc9oSoLHfOKgk2z-1" vertex="1"><mxGeometry x="280" y="40" width="160" height="110" as="geometry"><mxRectangle x="230" y="140" width="160" height="26" as="alternateBounds"/></mxGeometry></mxCell><mxCell id="p1RP8gc9oSoLHfOKgk2z-7" value="Theme" style="text;align=left;verticalAlign=top;spacingLeft=4;spacingRight=4;overflow=hidden;rotatable=0;points=[[0,0.5],[1,0.5]];portConstraint=eastwest;" parent="p1RP8gc9oSoLHfOKgk2z-6" vertex="1"><mxGeometry y="26" width="160" height="26" as="geometry"/></mxCell><mxCell id="p1RP8gc9oSoLHfOKgk2z-8" value="Content" style="text;align=left;verticalAlign=top;spacingLeft=4;spacingRight=4;overflow=hidden;rotatable=0;points=[[0,0.5],[1,0.5]];portConstraint=eastwest;rounded=0;shadow=0;html=0;" parent="p1RP8gc9oSoLHfOKgk2z-6" vertex="1"><mxGeometry y="52" width="160" height="26" as="geometry"/></mxCell><mxCell id="p1RP8gc9oSoLHfOKgk2z-9" value="Answer" style="text;align=left;verticalAlign=top;spacingLeft=4;spacingRight=4;overflow=hidden;rotatable=0;points=[[0,0.5],[1,0.5]];portConstraint=eastwest;rounded=0;shadow=0;html=0;" parent="p1RP8gc9oSoLHfOKgk2z-6" vertex="1"><mxGeometry y="78" width="160" height="26" as="geometry"/></mxCell><mxCell id="p1RP8gc9oSoLHfOKgk2z-10" value="Answer" style="swimlane;fontStyle=2;align=center;verticalAlign=top;childLayout=stackLayout;horizontal=1;startSize=26;horizontalStack=0;resizeParent=1;resizeLast=0;collapsible=1;marginBottom=0;rounded=0;shadow=0;strokeWidth=1;" parent="p1RP8gc9oSoLHfOKgk2z-1" vertex="1"><mxGeometry x="520" y="40" width="160" height="80" as="geometry"><mxRectangle x="230" y="140" width="160" height="26" as="alternateBounds"/></mxGeometry></mxCell><mxCell id="p1RP8gc9oSoLHfOKgk2z-11" value="Question" style="text;align=left;verticalAlign=top;spacingLeft=4;spacingRight=4;overflow=hidden;rotatable=0;points=[[0,0.5],[1,0.5]];portConstraint=eastwest;rounded=0;shadow=0;html=0;" parent="p1RP8gc9oSoLHfOKgk2z-10" vertex="1"><mxGeometry y="26" width="160" height="26" as="geometry"/></mxCell><mxCell id="p1RP8gc9oSoLHfOKgk2z-12" value="Content" style="text;align=left;verticalAlign=top;spacingLeft=4;spacingRight=4;overflow=hidden;rotatable=0;points=[[0,0.5],[1,0.5]];portConstraint=eastwest;rounded=0;shadow=0;html=0;" parent="p1RP8gc9oSoLHfOKgk2z-10" vertex="1"><mxGeometry y="52" width="160" height="26" as="geometry"/></mxCell><mxCell id="p1RP8gc9oSoLHfOKgk2z-13" value="contains" style="endArrow=open;html=1;endSize=12;startArrow=diamondThin;startSize=14;startFill=0;edgeStyle=orthogonalEdgeStyle;rounded=0;entryX=0;entryY=0.5;entryDx=0;entryDy=0;" parent="p1RP8gc9oSoLHfOKgk2z-1" target="p1RP8gc9oSoLHfOKgk2z-7" edge="1"><mxGeometry relative="1" as="geometry"><mxPoint x="200" y="130" as="sourcePoint"/><mxPoint x="360" y="130" as="targetPoint"/><Array as="points"><mxPoint x="240" y="130"/><mxPoint x="240" y="79"/></Array></mxGeometry></mxCell><mxCell id="p1RP8gc9oSoLHfOKgk2z-14" value="1" style="edgeLabel;resizable=0;html=1;align=left;verticalAlign=top;" parent="p1RP8gc9oSoLHfOKgk2z-13" connectable="0" vertex="1"><mxGeometry x="-1" relative="1" as="geometry"/></mxCell><mxCell id="p1RP8gc9oSoLHfOKgk2z-15" value="0..n" style="edgeLabel;resizable=0;html=1;align=right;verticalAlign=top;" parent="p1RP8gc9oSoLHfOKgk2z-13" connectable="0" vertex="1"><mxGeometry x="1" relative="1" as="geometry"/></mxCell><mxCell id="p1RP8gc9oSoLHfOKgk2z-16" value="contains" style="endArrow=open;html=1;endSize=12;startArrow=diamondThin;startSize=14;startFill=1;edgeStyle=orthogonalEdgeStyle;rounded=0;entryX=0;entryY=0.5;entryDx=0;entryDy=0;" parent="p1RP8gc9oSoLHfOKgk2z-1" edge="1"><mxGeometry relative="1" as="geometry"><mxPoint x="440" y="131" as="sourcePoint"/><mxPoint x="520" y="80" as="targetPoint"/><Array as="points"><mxPoint x="480" y="131"/><mxPoint x="480" y="80"/></Array></mxGeometry></mxCell><mxCell id="p1RP8gc9oSoLHfOKgk2z-17" value="1" style="edgeLabel;resizable=0;html=1;align=left;verticalAlign=top;" parent="p1RP8gc9oSoLHfOKgk2z-16" connectable="0" vertex="1"><mxGeometry x="-1" relative="1" as="geometry"/></mxCell><mxCell id="p1RP8gc9oSoLHfOKgk2z-18" value="1" style="edgeLabel;resizable=0;html=1;align=right;verticalAlign=top;" parent="p1RP8gc9oSoLHfOKgk2z-16" connectable="0" vertex="1"><mxGeometry x="1" relative="1" as="geometry"/></mxCell><mxCell id="GxckDNKhVhU06LzeF_bF-0" value="User" style="swimlane;fontStyle=2;align=center;verticalAlign=top;childLayout=stackLayout;horizontal=1;startSize=26;horizontalStack=0;resizeParent=1;resizeLast=0;collapsible=1;marginBottom=0;rounded=0;shadow=0;strokeWidth=1;" parent="p1RP8gc9oSoLHfOKgk2z-1" vertex="1"><mxGeometry x="40" y="200" width="160" height="190" as="geometry"><mxRectangle x="230" y="140" width="160" height="26" as="alternateBounds"/></mxGeometry></mxCell><mxCell id="GxckDNKhVhU06LzeF_bF-1" value="email" style="text;align=left;verticalAlign=top;spacingLeft=4;spacingRight=4;overflow=hidden;rotatable=0;points=[[0,0.5],[1,0.5]];portConstraint=eastwest;" parent="GxckDNKhVhU06LzeF_bF-0" vertex="1"><mxGeometry y="26" width="160" height="26" as="geometry"/></mxCell><mxCell id="GxckDNKhVhU06LzeF_bF-2" value="password" style="text;align=left;verticalAlign=top;spacingLeft=4;spacingRight=4;overflow=hidden;rotatable=0;points=[[0,0.5],[1,0.5]];portConstraint=eastwest;rounded=0;shadow=0;html=0;" parent="GxckDNKhVhU06LzeF_bF-0" vertex="1"><mxGeometry y="52" width="160" height="26" as="geometry"/></mxCell><mxCell id="GxckDNKhVhU06LzeF_bF-3" value="username" style="text;align=left;verticalAlign=top;spacingLeft=4;spacingRight=4;overflow=hidden;rotatable=0;points=[[0,0.5],[1,0.5]];portConstraint=eastwest;rounded=0;shadow=0;html=0;" parent="GxckDNKhVhU06LzeF_bF-0" vertex="1"><mxGeometry y="78" width="160" height="26" as="geometry"/></mxCell><mxCell id="GxckDNKhVhU06LzeF_bF-4" value="firstName" style="text;align=left;verticalAlign=top;spacingLeft=4;spacingRight=4;overflow=hidden;rotatable=0;points=[[0,0.5],[1,0.5]];portConstraint=eastwest;rounded=0;shadow=0;html=0;" parent="GxckDNKhVhU06LzeF_bF-0" vertex="1"><mxGeometry y="104" width="160" height="26" as="geometry"/></mxCell><mxCell id="GxckDNKhVhU06LzeF_bF-5" value="lastName" style="text;align=left;verticalAlign=top;spacingLeft=4;spacingRight=4;overflow=hidden;rotatable=0;points=[[0,0.5],[1,0.5]];portConstraint=eastwest;rounded=0;shadow=0;html=0;" parent="GxckDNKhVhU06LzeF_bF-0" vertex="1"><mxGeometry y="130" width="160" height="26" as="geometry"/></mxCell><mxCell id="GxckDNKhVhU06LzeF_bF-6" value="role" style="text;align=left;verticalAlign=top;spacingLeft=4;spacingRight=4;overflow=hidden;rotatable=0;points=[[0,0.5],[1,0.5]];portConstraint=eastwest;rounded=0;shadow=0;html=0;" parent="GxckDNKhVhU06LzeF_bF-0" vertex="1"><mxGeometry y="156" width="160" height="26" as="geometry"/></mxCell></root></mxGraphModel></diagram></mxfile>